<?xml version="1.0" standalone="no"?><!DOCTYPE svg PUBLIC "-//W3C//DTD SVG 1.1//EN" "http://www.w3.org/Graphics/SVG/1.1/DTD/svg11.dtd"><svg t="1697681114593" class="icon" viewBox="0 0 1024 1024" version="1.1" xmlns="http://www.w3.org/2000/svg" p-id="12309" id="mx_n_1697681114595" width="48" height="48" xmlns:xlink="http://www.w3.org/1999/xlink"><path d="M636.992167 89.56658L679.101828 16.710183a33.420366 33.420366 0 0 1 45.451697-12.031332 33.420366 33.420366 0 0 1 12.031331 45.451697L695.81201 124.992167a334.203655 334.203655 0 0 1 120.313316 197.180157H161.086162a334.203655 334.203655 0 0 1 125.660574-200.522193L244.637076 50.130548a33.420366 33.420366 0 0 1 12.031331-45.451697 33.420366 33.420366 0 0 1 45.451697 12.031332l40.772846 70.851175A334.203655 334.203655 0 0 1 488.605744 54.809399a334.203655 334.203655 0 0 1 148.386423 34.757181zM328.18799 255.331593a33.420366 33.420366 0 1 0-33.420366-33.420366 33.420366 33.420366 0 0 0 33.420366 33.420366z m334.203655 0a33.420366 33.420366 0 1 0-33.420366-33.420366 33.420366 33.420366 0 0 0 33.420366 33.420366zM60.825065 455.853786a33.420366 33.420366 0 0 1 33.420366 33.420365v267.362925a33.420366 33.420366 0 0 1-33.420366 33.420365 33.420366 33.420366 0 0 1-33.420365-33.420365v-267.362925a33.420366 33.420366 0 0 1 33.420365-33.420365zM294.767624 689.796345a366.955614 366.955614 0 0 1 157.075718-300.78329H161.086162v467.885117h133.681462v100.261097a33.420366 33.420366 0 0 0 66.840731 0v-56.814621a364.950392 364.950392 0 0 1-66.840731-210.548303z" fill="#a6ce3a" p-id="12310"></path><path d="M662.391645 1024a334.203655 334.203655 0 1 1 334.203655-334.203655h-66.840731a267.362924 267.362924 0 0 0-110.287206-216.563969 267.362924 267.362924 0 1 0 10.02611 423.101828l42.10966 51.467363a334.203655 334.203655 0 0 1-209.211488 76.198433z" fill="#a6ce3a" p-id="12311"></path><path d="M735.916449 653.033943H495.289817v66.840731h243.300261l-38.767624 38.767624 47.456919 46.788511 118.308094-117.639686-118.308094-118.308094-47.456919 46.788511 36.093995 36.762403z" fill="#a6ce3a" p-id="12312"></path></svg>