<?xml version="1.0" standalone="no"?><!DOCTYPE svg PUBLIC "-//W3C//DTD SVG 1.1//EN" "http://www.w3.org/Graphics/SVG/1.1/DTD/svg11.dtd"><svg t="1695090718570" class="icon" viewBox="0 0 1024 1024" version="1.1" xmlns="http://www.w3.org/2000/svg" p-id="1810" width="48" height="48" xmlns:xlink="http://www.w3.org/1999/xlink"><path d="M751.80113 11.570621H210.932429a74.804068 74.804068 0 0 0-74.572655 74.572656v851.713446A74.804068 74.804068 0 0 0 210.932429 1012.429379h708.700565a74.804068 74.804068 0 0 0 74.572656-74.572656V254.032994z" fill="#E9FFE9" p-id="1811"></path><path d="M751.80113 179.344633a74.861921 74.861921 0 0 0 74.572655 74.630508h167.774012L751.80113 11.570621z" fill="#97DD97" p-id="1812"></path><path d="M18.223729 624.813559m69.423729 0l569.853107 0q69.423729 0 69.423729 69.423729l0 185.129944q0 69.423729-69.423729 69.423728l-569.853107 0q-69.423729 0-69.423729-69.423728l0-185.129944q0-69.423729 69.423729-69.423729Z" fill="#65CE65" p-id="1813"></path><path d="M147.814689 864.556836a49.637966 49.637966 0 0 1-16.95096-40.497175 48.712316 48.712316 0 0 1 15.562486-38.703729q15.504633-13.711186 43.910508-13.711186H249.057627l2.371978 22.794124H190.510282a39.976497 39.976497 0 0 0-26.26531 7.752316 29.620791 29.620791 0 0 0 2.371977 45.067571 56.522486 56.522486 0 0 0 32.918418 8.215141 107.317514 107.317514 0 0 0 35.406102-4.570395c8.388701-3.066215 12.554124-7.347345 12.554124-12.901243l3.586893 23.141243a47.323842 47.323842 0 0 1-13.537627 9.487909 77.581017 77.581017 0 0 1-18.860113 5.785311 124.55774 124.55774 0 0 1-23.141243 2.024859c-20.364294 0.404972-36.389605-4.338983-47.728814-13.884746z m99.680904-100.143729a45.819661 45.819661 0 0 0-11.570621-33.265536 43.447684 43.447684 0 0 0-32.5713-11.570622 76.423955 76.423955 0 0 0-24.645423 4.049718 70.92791 70.92791 0 0 0-21.463503 11.570621L139.715254 722.75887a66.068249 66.068249 0 0 1 26.496723-18.80226 94.647684 94.647684 0 0 1 36.447458-6.71096 83.539887 83.539887 0 0 1 37.60452 7.752316 53.514124 53.514124 0 0 1 23.777627 22.447006 71.795706 71.795706 0 0 1 8.157288 35.406101v113.449944h-24.703277zM307.489266 700.022599h24.298305v248.305537H307.489266z m43.158418 171.997288a42.695593 42.695593 0 0 1-21.058531-23.141243l2.371977-36.910282a48.075932 48.075932 0 0 0 5.438192 22.215593 44.720452 44.720452 0 0 0 15.620339 17.355932 43.042712 43.042712 0 0 0 23.893333 6.248136 43.968362 43.968362 0 0 0 33.959774-13.132656 52.819887 52.819887 0 0 0 12.322712-37.025988V769.446328a54.266215 54.266215 0 0 0-12.091299-37.662373 48.885876 48.885876 0 0 0-57.853108-6.826667 44.778305 44.778305 0 0 0-15.620339 16.950961A46.282486 46.282486 0 0 0 331.787571 763.661017l-3.586893-34.017627a56.001808 56.001808 0 0 1 24.414011-24.703277 78.101695 78.101695 0 0 1 35.463955-7.578757 58.778757 58.778757 0 0 1 32.050622 8.446554 52.704181 52.704181 0 0 1 20.422146 24.414011 97.36678 97.36678 0 0 1 6.88452 39.224407v38.472316a93.143503 93.143503 0 0 1-6.88452 38.125198 52.935593 52.935593 0 0 1-20.884971 24.414011 62.076384 62.076384 0 0 1-32.976272 8.388701 80.99435 80.99435 0 0 1-36.216045-7.058079zM479.312994 629.036836h24.471865v247.264181H479.312994z m17.355933 187.039096L596.754802 700.022599h28.926554l-133.582825 150.418079z m50.158644-35.058983l14.289717-23.141243 73.473446 118.714576h-29.736497z" fill="#FFFFFF" p-id="1814"></path><path d="M454.783277 109.920904a178.071864 178.071864 0 0 0-178.014011 178.071864h356.085875A178.071864 178.071864 0 0 0 454.783277 109.920904zM280.703277 302.745311h348.16V532.248588H280.703277z" fill="#97DD97" p-id="1815"></path><path d="M386.400904 206.651299m-19.322938 0a19.322938 19.322938 0 1 0 38.645876 0 19.322938 19.322938 0 1 0-38.645876 0Z" fill="#DFF7DF" p-id="1816"></path><path d="M515.35548 206.651299m-19.322938 0a19.322938 19.322938 0 1 0 38.645876 0 19.322938 19.322938 0 1 0-38.645876 0Z" fill="#DFF7DF" p-id="1817"></path></svg>