<svg xmlns="http://www.w3.org/2000/svg" viewBox="0 0 131.26 150.02"><defs><style>.cls-1{fill:#2e81c5;}.cls-2{fill:#fff;}</style></defs><title>资源 8</title><g id="图层_2" data-name="图层 2"><g id="图层_1-2" data-name="图层 1"><path class="cls-1" d="M103.23,0H28A28,28,0,0,0,0,28v94a28,28,0,0,0,28,28h75.2a28,28,0,0,0,28-28V28a28,28,0,0,0-28-28Z"/><path class="cls-2" d="M31.15,43.74H95c3.09,0,5.64-1.71,5.64-3.79s-2.55-3.8-5.64-3.8H31.15c-3.09,0-5.63,1.72-5.63,3.8s2.45,3.79,5.63,3.79Z"/><path class="cls-2" d="M33,74.35H29.31a3.8,3.8,0,0,0,0,7.59H33a3.8,3.8,0,1,0,0-7.59Z"/><path class="cls-2" d="M29.31,62.84H44.12a3.8,3.8,0,1,0,0-7.59H29.31a3.82,3.82,0,0,0-3.79,3.8,3.77,3.77,0,0,0,3.79,3.79Z"/><path class="cls-2" d="M78.67,95.37,89.4,84.64a2.19,2.19,0,0,0,0-3.06L78.67,70.84a2.16,2.16,0,0,0-3.06,3.06l7,7H62.08A2.14,2.14,0,0,0,60,83.08a2.18,2.18,0,0,0,2.13,2.13H82.66l-7,7.05a2.12,2.12,0,0,0,0,3,2.1,2.1,0,0,0,3.06.11Z"/><path class="cls-2" d="M75,113.86A30.76,30.76,0,1,1,105.75,83.1,30.79,30.79,0,0,1,75,113.86Zm0-55.31A24.55,24.55,0,1,0,99.53,83.1,24.56,24.56,0,0,0,75,58.55Z"/></g></g></svg>