<?xml version="1.0" encoding="UTF-8" standalone="no"?>
<!-- Created with Inkscape (http://www.inkscape.org/) -->

<svg class="icon" style="width: 1em; height: 1em;vertical-align: middle;fill: currentColor;overflow: hidden;" viewBox="0 0 1024 1024" version="1.1" xmlns="http://www.w3.org/2000/svg" p-id="1364"><path d="M512 85.333333a426.666667 426.666667 0 1 0 426.666667 426.666667A426.666667 426.666667 0 0 0 512 85.333333zM306.773333 569.6H224.853333l22.186667-102.826667h78.506667c51.2 0 63.146667 24.746667 63.146666 44.8 0 27.733333-18.346667 58.026667-81.92 58.026667z m28.16-155.306667H253.44l22.186667-102.826666H354.133333c50.773333 0 62.72 25.173333 62.72 42.666666 0 29.866667-17.92 60.16-81.92 60.16z m160 317.013334H413.013333l22.613334-103.253334h78.506666c50.773333 0 62.72 25.173333 62.72 45.226667 0 27.733333-17.92 58.026667-81.92 58.026667z m30.293334-161.706667H443.733333l22.186667-102.826667h78.506667c50.773333 0 62.72 24.746667 62.72 44.8 0 27.733333-17.92 58.026667-81.92 58.026667zM554.666667 414.293333h-82.773334l22.186667-102.826666h78.506667c51.2 0 63.146667 25.173333 63.146666 42.666666 0 29.866667-18.346667 60.16-81.066666 60.16z m159.573333 239.36h-82.346667l22.186667-103.253333h78.506667c50.773333 0 63.146667 25.173333 63.146666 45.226667 0 27.733333-18.346667 58.026667-82.346666 58.026666z m30.72-146.773333h-82.773333L682.666667 403.626667h78.506666c51.2 0 63.146667 25.173333 63.146667 42.666666 1.706667 30.293333-16.64 60.586667-80.213333 60.586667z" p-id="1365"></path></svg>