<?xml version="1.0" standalone="no"?><!DOCTYPE svg PUBLIC "-//W3C//DTD SVG 1.1//EN" "http://www.w3.org/Graphics/SVG/1.1/DTD/svg11.dtd"><svg t="1696756837733" class="icon" viewBox="0 0 1024 1024" version="1.1" xmlns="http://www.w3.org/2000/svg" p-id="17436" xmlns:xlink="http://www.w3.org/1999/xlink" width="48" height="48"><path d="M922.85749971 610.25000029C845.74999971 509.75 730.62500029 406.54999971 698.89249971 381.42500029 676.25 363.5 654.46250029 354.5 632.69749971 354.5a95.30250029 95.30250029 0 0 0-61.65749971 25.12500029c-3.62999971 3.59250029-9.0675 8.0775-15.4125 13.46249971-45.3375 37.69499971-186.795 166.0275-190.4175 169.61249971a58.94250029 58.94250029 0 0 1-39.89999971 16.155 69.21749971 69.21749971 0 0 1-43.50000058-20.63999971A1055.0475 1055.0475 0 0 1 166.625 448.73c-34.45499971-38.5875-63.4725-72.69000029-63.4725-72.69000029s-6.345 12.56249971-9.97499971 22.4325a17.02500029 17.02500029 0 0 0 0.90749971 14.36250058C113.12749971 439.75999971 199.25 541.16749971 317.15 642.57499971A100.26749971 100.26749971 0 0 0 383.33750029 669.5a95.30250029 95.30250029 0 0 0 61.65749971-25.12500029c3.62999971-3.59250029 9.0675-8.0775 15.4125-13.46249971 45.3375-37.69499971 131.48250029-115.76999971 171.37500029-152.56500029 9.0675-8.0775 15.4125-13.46249971 18.135-16.155a58.94250029 58.94250029 0 0 1 39.89999971-16.155 74.295 74.295 0 0 1 43.49999971 20.64000058c25.38749971 21.53999971 66.195 59.24999971 115.155 109.49999942 35.36250029 37.69499971 63.4725 71.7975 63.4725 72.69000029 0 0 6.345-13.46249971 9.97500058-22.4325a16.12500029 16.12500029 0 0 0 0.93749942-16.18499971z" fill="#8DC21F" p-id="17437"></path><path d="M469.61 235.0475c-39.8025 28.95000029-202.635 180.0225-234.29999971 216.20999971a550.50000029 550.50000029 0 0 0 56.99999971 53.40000058 19.8 19.8 0 0 0 28.95000029-3.61500029c62.42249971-63.32249971 190.88250029-176.40749971 208.06499971-189.97499971 47.9475-40.70999971 104.94-44.325 155.59499971-6.33000058 124.83749971 94.05 236.10750029 241.50750029 255.105 268.65 0 0 2.71500029-13.5675 4.5-25.32749942a28.5975 28.5975 0 0 0-3.61499942-20.80500029c-117.60000029-169.1775-242.42249971-274.11000029-290.37000058-300.34500029-54.27749971-28.04249971-117.60000029-38.0025-180.92999971 8.13750029z" fill="#0084CF" p-id="17438"></path><path d="M337.50500029 147.2975c-80.4825 65.13000029-184.5 161.02500029-210.75000029 189.97499971a706.5 706.5 0 0 0 50.66250029 54.27750058 11.12249971 11.12249971 0 0 0 17.19-1.80750058c79.605-76.89750029 165.54750029-155.60250029 216.2025-194.50499942 84.13499971-65.1375 183.645-71.46749971 280.44 5.42999971a1192.66499971 1192.66499971 0 0 1 114.89249971 104.94 1622.99999971 1622.99999971 0 0 1 141.12 180 206.505 206.505 0 0 0-4.5-37.99500029 57.83249971 57.83249971 0 0 0-5.42999971-14.47499971 857.025 857.025 0 0 0-100.43250029-145.59000029C728.3375 160.865 660.49250029 122.86999971 616.16750029 99.35 557.36 69.49999971 444.28249971 60.4475 337.50500029 147.2975z" fill="#0084CF" p-id="17439"></path><path d="M554.6375 782.36c39.8025-28.95000029 202.64249971-180 234.29999971-216.20999971a615.465 615.465 0 0 0-56.99999971-54.27750058 19.8 19.8 0 0 0-28.95000029 3.61500029c-62.3925 63.32249971-190.85249971 176.40749971-208.04249971 189.97499971-47.9475 40.70999971-104.94 44.325-156.50250029 6.33000058C213.605 617.71249971 103.23500029 470.25500029 84.23749971 442.21249971c0 0-2.71500029 13.5675-4.5 25.32750029a28.5975 28.5975 0 0 0 3.6 20.8125c117.60000029 169.16249971 242.4375 274.11000029 290.385 300.35999971 54.27749971 29.82750029 117.6075 39.75000029 180.91500029-6.35249971z" fill="#0084CF" p-id="17440"></path><path d="M686.75000029 870.10250029c80.51249971-65.1375 184.545-161.02500029 210.74999942-189.97500058a706.5 706.5 0 0 0-50.66249942-54.27749971 11.12249971 11.12249971 0 0 0-17.19 1.80749971C750.05 704.555 664.10749971 783.26 613.4525 822.1625c-84.13499971 65.1375-183.645 71.46749971-280.44-5.42999971a1192.67250029 1192.67250029 0 0 1-114.89249971-104.9625A1622.99999971 1622.99999971 0 0 1 77.00000029 531.77000029a214.43249971 214.43249971 0 0 0 4.5 37.99499942 57.83249971 57.83249971 0 0 0 5.45249971 14.50500029 857.025 857.025 0 0 0 100.4175 145.64999971c108.55500029 126.60000029 176.4 164.61 220.725 188.1 58.80750029 29.88749971 171.88499971 38.93249971 278.65500029-47.91749942z" fill="#0084CF" p-id="17441"></path></svg>