<svg xmlns="http://www.w3.org/2000/svg" viewBox="0 0 131.26 150.02"><defs><style>.cls-1{fill:#2da092;}.cls-2{fill:#fff;}</style></defs><title>资源 9</title><g id="图层_2" data-name="图层 2"><g id="图层_1-2" data-name="图层 1"><path class="cls-1" d="M103.23,0H28A28,28,0,0,0,0,28v94a28,28,0,0,0,28,28h75.2a28,28,0,0,0,28-28V28a28,28,0,0,0-28-28Z"/><path class="cls-2" d="M104.91,40,66.85,26.9a3.72,3.72,0,0,0-2.42,0L26.35,40a3.71,3.71,0,0,0-2.5,3.51V84c1.1,23.89,38.86,38.51,40.47,39.12a3.7,3.7,0,0,0,2.62,0c1.62-.61,39.39-15.26,40.47-39.29V43.49a3.7,3.7,0,0,0-2.5-3.54Zm-4.83,43.69c-.77,17-28.59,29.56-34.39,32a95.41,95.41,0,0,1-20.82-11.88c-8.68-6.68-13.24-13.4-13.53-19.93V46.09L65.7,34.24l34.36,11.85Z"/><path class="cls-2" d="M65.66,77.39a11.3,11.3,0,1,1,8-3.31,11.28,11.28,0,0,1-8,3.31Zm0-16.12a4.84,4.84,0,1,0,4.83,4.84,4.84,4.84,0,0,0-4.83-4.84Z"/><path class="cls-2" d="M65.66,100.76a3.24,3.24,0,0,1-3.23-3.23v-21a3.23,3.23,0,0,1,6.45,0v21a3.24,3.24,0,0,1-3.22,3.23Z"/><path class="cls-2" d="M73.71,91.09H67.27a3.23,3.23,0,1,1,0-6.45h6.44a3.23,3.23,0,1,1,0,6.45Z"/></g></g></svg>