<?xml version="1.0" encoding="UTF-8" standalone="no"?>
<svg class="icon" style="width: 1em;height: 1em;vertical-align: middle;fill: currentColor;overflow: hidden;" viewBox="0 0 1024 1024" version="1.1" xmlns="http://www.w3.org/2000/svg" p-id="9172"><path d="M310.3488 893.7728a35.2 35.2 0 0 1 30.2592 35.3792c0 20.6336-17.664 36.9664-37.6832 36.9664H93.184c-49.408 0-93.056-41.9328-93.056-90.5216V91.392c0-48.4864 43.52-91.264 93.056-91.264h743.808c49.408 0 93.056 42.6496 93.056 91.264v163.6096c-0.8704 19.7888-18.5344 35.2512-37.7088 35.2512-19.3024 0-34.304-13.2352-36.8128-30.4128V116.1216c0-25.6-20.1728-44.3904-46.0288-44.3904H116.6592c-24.3456 0-44.3904 18.944-44.3904 44.3904v734.2336c0 23.8848 20.1728 43.52 44.3904 43.52h193.6896v-0.1024z m379.8528-520.2944c183.6032 0 333.6704 144.7168 333.6704 324.7616 0 180.0704-150.1952 325.632-333.6704 325.632-185.2672 0-333.696-145.5616-333.696-325.632 0-180.1728 148.3008-324.7616 333.696-324.7616z m0 592.64c150.9376 0 274.9184-119.9616 274.9184-267.9808 0-147.2-124.1088-267.264-275.0464-267.264-151.8336 0-275.9424 120.064-275.9424 267.264 0.128 148.0192 124.2368 267.9808 276.0704 267.9808zM363.1872 355.328c12.6208 0 22.7072 9.0368 22.7072 21.4016s-10.0864 22.272-22.7072 22.272H165.1968a22.4 22.4 0 0 1-22.6816-22.272c0-12.3648 10.0864-21.4016 22.6816-21.4016h197.9904z m270.7712-68.2496c0 12.3648-10.112 22.272-22.7072 22.272H165.1968a22.4 22.4 0 0 1-22.6816-22.272 23.04 23.04 0 0 1 22.6816-23.0144h446.0544a23.04 23.04 0 0 1 22.7072 23.0144z m153.344-88.8064c0 12.3648-10.0864 21.4016-22.7072 21.4016H165.1968c-12.5952 0-22.6816-9.0368-22.6816-21.4016s10.0864-22.272 22.6816-22.272h599.5264a22.528 22.528 0 0 1 22.5792 22.272z m-74.0352 678.3488a23.808 23.808 0 0 1-37.7088 0L579.0976 768c-5.9392-6.5536-8.448-15.5904-7.5776-26.3424a19.1232 19.1232 0 0 1 19.3024-17.3056h62.0288v-101.0432c0-12.3648 8.448-20.6592 21.0688-20.6592h40.2432c12.5952 0 21.0432 8.2944 21.0432 20.6592v101.0432h62.9248c9.216 0 17.664 7.424 20.1984 17.3056 0.8704 9.8816-2.5344 18.944-9.216 26.3424l-95.8464 108.5952zM674.176 562.432c-12.6208 0-21.0688-8.2944-21.0688-20.6592 0-10.752 8.448-20.6592 21.0688-20.6592h40.2176c12.6208 0 21.0688 9.9072 21.0688 20.6592 0 12.3648-8.448 20.6592-21.0688 20.6592h-40.2176z" fill="#1B7AFF" p-id="9173"></path></svg>