<?xml version="1.0" encoding="UTF-8" ?>
<svg class="icon" style="width: 1em; height: 1em;vertical-align: middle;fill: currentColor;overflow: hidden;" viewBox="0 0 1024 1024" version="1.1" xmlns="http://www.w3.org/2000/svg" p-id="20851"><path d="M348.992 0C233.472 0 217.984 91.52 217.984 91.52S192.768 241.28 192 480c-0.256 69.76 1.472 147.2 6.528 230.72l9.984 171.52c1.984 34.24 32.768 62.272 72.512 65.728l84.224 7.04A1236.48 1236.48 0 0 0 478.976 960h2.048a1254.4 1254.4 0 0 0 114.752-4.992l84.48-7.04c39.488-3.456 70.272-31.488 72.256-65.728l9.728-171.52c5.248-83.456 6.016-160.96 5.76-230.72-1.024-238.72-24.96-388.48-24.96-388.48S727.68 0 611.968 0z m0 64h263.04c53.248 0 65.472 27.776 67.712 37.504 0.256 1.472 23.04 147.52 24 375.488h-0.512C695.232 564.032 600 640 477.504 640 368.256 640 273.28 563.008 256 476.48c1.28-227.456 24.96-372.992 25.28-374.464C281.472 100.48 288.512 64 348.992 64zM480 128c-17.472 0-32 14.528-32 32v64c0 17.472 14.528 32 32 32s32-14.528 32-32v-64c0-17.472-14.528-32-32-32zM344.768 320C331.008 320 320 328.768 320 339.776V492.16c0 11.008 11.008 19.776 24.768 19.776h270.464c13.76 0 24.768-8.768 24.768-19.776V339.84C640 328.768 628.992 320 615.232 320zM258.24 611.52A305.152 305.152 0 0 0 477.504 704c89.472 0 170.752-33.984 224.512-88.512-0.768 30.016-1.536 59.776-3.52 91.52l-9.728 170.752c-0.768 1.472-5.248 5.504-14.016 6.272l-84.48 7.488a1359.36 1359.36 0 0 1-106.752 4.48h-4.48c-36.288 0-72.512-1.472-108.032-4.736l-84.48-7.296c-8.768-0.704-13.248-4.736-14.08-5.248l-9.92-171.968c-1.792-31.744-3.264-63.488-4.288-95.232z" p-id="20852"></path></svg>