<?xml version="1.0" encoding="UTF-8" standalone="no"?>
<svg
   xmlns:dc="http://purl.org/dc/elements/1.1/"
   xmlns:cc="http://creativecommons.org/ns#"
   xmlns:rdf="http://www.w3.org/1999/02/22-rdf-syntax-ns#"
   xmlns:svg="http://www.w3.org/2000/svg"
   xmlns="http://www.w3.org/2000/svg"
   xmlns:sodipodi="http://sodipodi.sourceforge.net/DTD/sodipodi-0.dtd"
   xmlns:inkscape="http://www.inkscape.org/namespaces/inkscape"
   class="icon"
   style="width: 1em; height: 1em;vertical-align: middle;fill: currentColor;overflow: hidden;"
   viewBox="0 0 1024 1024"
   version="1.1"
   p-id="527"
   id="svg4"
   sodipodi:docname="huawei.svg"
   inkscape:version="0.92.4 (5da689c313, 2019-01-14)">
  <metadata
     id="metadata10">
    <rdf:RDF>
      <cc:Work
         rdf:about="">
        <dc:format>image/svg+xml</dc:format>
        <dc:type
           rdf:resource="http://purl.org/dc/dcmitype/StillImage" />
      </cc:Work>
    </rdf:RDF>
  </metadata>
  <defs
     id="defs8" />
  <sodipodi:namedview
     pagecolor="#ffffff"
     bordercolor="#666666"
     borderopacity="1"
     objecttolerance="10"
     gridtolerance="10"
     guidetolerance="10"
     inkscape:pageopacity="0"
     inkscape:pageshadow="2"
     inkscape:window-width="1289"
     inkscape:window-height="794"
     id="namedview6"
     showgrid="false"
     inkscape:zoom="0.23046875"
     inkscape:cx="512"
     inkscape:cy="512"
     inkscape:window-x="0"
     inkscape:window-y="0"
     inkscape:window-maximized="0"
     inkscape:current-layer="svg4" />
  <path
     d="M156.586667 261.973333S77.653333 337.493333 73.386667 417.28v14.933333c3.413333 64.426667 52.053333 102.4 52.053333 102.4 78.08 76.373333 267.093333 172.373333 311.466667 194.133334 0 0 2.56 1.28 4.266666-0.426667l0.853334-1.706667v-1.706666C320.853333 460.8 156.586667 261.973333 156.586667 261.973333zM411.733333 793.6c-0.853333-3.413333-4.266667-3.413333-4.266666-3.413333l-314.88 11.093333c34.133333 61.013333 91.733333 107.946667 151.893333 93.866667 40.96-10.666667 134.826667-75.946667 165.546667-98.133334 2.56-2.133333 1.706667-3.84 1.706666-3.84z m3.413334-33.28C276.906667 666.88 8.96 523.946667 8.96 523.946667c-6.4 19.626667-8.533333 38.4-8.96 55.466666v2.986667c0 45.653333 17.066667 77.653333 17.066667 77.653333 34.133333 72.106667 99.84 93.866667 99.84 93.866667 29.866667 12.8 59.733333 13.226667 59.733333 13.226667 5.12 0.853333 187.733333 0 236.373333 0 2.133333 0 3.413333-2.133333 3.413334-2.133334v-2.56c0-1.28-1.28-2.133333-1.28-2.133333zM386.56 136.106667a145.92 145.92 0 0 0-109.653333 134.4v17.493333c1.28 25.6 6.826667 44.8 6.826666 44.8 28.16 123.733333 164.693333 326.4 194.133334 369.066667 2.133333 2.133333 4.266667 1.28 4.266666 1.28a4.266667 4.266667 0 0 0 2.56-4.266667c45.226667-452.266667-47.36-572.586667-47.36-572.586667-13.653333 0.853333-50.773333 9.813333-50.773333 9.813334z m354.133333 96.853333s-20.906667-76.8-104.106666-97.28c0 0-24.32-5.973333-49.92-9.386667 0 0-93.013333 119.893333-47.786667 573.013334 0.426667 2.986667 2.56 3.413333 2.56 3.413333 2.986667 1.28 4.266667-1.28 4.266667-1.28 30.72-43.946667 166.4-245.76 194.133333-368.64 0 0 15.36-59.733333 0.853333-99.84z m-124.586666 557.653333s-2.986667 0-3.84 2.133334c0 0-0.426667 2.986667 1.28 4.266666 29.866667 21.76 121.6 85.333333 165.546666 98.133334 0 0 6.826667 2.133333 18.346667 2.56h5.973333c29.44-0.853333 81.066667-15.786667 128-96.426667l-315.733333-10.666667z m334.08-358.826666c5.973333-87.893333-82.773333-169.386667-82.773334-169.813334 0 0-164.266667 198.826667-284.586666 460.8 0 0-1.28 3.413333 0.853333 5.546667l1.706667 0.426667h2.56c45.226667-22.613333 232.96-118.186667 310.613333-193.706667 0 0 49.066667-39.68 51.626667-103.253333z m64.853333 91.306666s-267.946667 143.786667-406.186667 236.8c0 0-2.133333 1.706667-1.28 4.693334 0 0 1.28 2.56 2.986667 2.56 49.493333 0 237.226667 0 241.92-0.853334 0 0 24.32-0.853333 54.186667-12.373333 0 0 66.56-21.333333 101.12-96.853333 0 0 31.146667-61.866667 7.253333-133.973334z"
     p-id="528"
     id="path2"
     style="fill:#ff0000" />
</svg>
