<svg xmlns="http://www.w3.org/2000/svg" viewBox="0 0 131.26 150.02"><defs><style>.cls-1{fill:#e94c64;}.cls-2{fill:#fff;}.cls-3{fill:#fffefe;}.cls-4{fill:#fef5f4;}</style></defs><title>资源 3</title><g id="图层_2" data-name="图层 2"><g id="图层_1-2" data-name="图层 1"><path class="cls-1" d="M103.23,0H28A28,28,0,0,0,0,28v94a28,28,0,0,0,28,28h75.2a28,28,0,0,0,28-28V28a28,28,0,0,0-28-28Z"/><path class="cls-2" d="M42,57.17c15.58,8.4,31.32,8.77,46.78.14a14.63,14.63,0,0,0-2-.91c-.85-.28-1.78-.33-2.65-.56-2.2-.57-3.55-1.81-3.06-4.29s2.29-2.7,4.16-2.29c6.36,1.4,12.68,3,19,4.44,2.38.56,3,2.18,3,4.45-.06,11.43,0,22.86,0,34.29,0,2.27-.49,3.91-3.25,3.9s-3.31-1.59-3.3-3.89c0-10.14,0-20.29,0-30.88-9.89,2.95-19.36,5.86-28.9,8.58-2.23.63-2.71,1.82-2.7,3.9.07,11.25.1,22.5,0,33.75,0,2.59.82,3.17,3.15,2.42q6.45-2.1,13-4c2.14-.63,4.65-1.07,5.55,1.64,1,2.92-1,4.28-3.65,4.85a5,5,0,0,0-.53.12c-20.18,6.61-20.19,6.61-40,.67-6.23-1.87-12.42-3.85-18.67-5.63-2.68-.76-3.83-2.22-3.81-5,.07-14.88,0-29.75,0-44.63,0-2.49.84-4.06,3.5-4.64,6-1.31,12-2.84,18-4.23,2.3-.53,4.58-.48,5.08,2.44S48.87,55.4,46.63,56C45.06,56.33,43.51,56.76,42,57.17Z"/><path class="cls-3" d="M62.47,47.45c0-4.52,0-8.12,0-11.71,0-2.16,1-3.53,3.12-3.6A3.23,3.23,0,0,1,69,35.57c.16,3.6,0,7.21,0,10.75,1.83.63,2.32-1,3.36-1.54a3.24,3.24,0,0,1,4.32.95,3,3,0,0,1-.35,4.37c-2.75,2.61-5.56,5.16-8.52,7.52a3.48,3.48,0,0,1-4.53-.09c-2.92-2.41-5.83-4.85-8.63-7.4a3.26,3.26,0,0,1-.38-4.46,3,3,0,0,1,4.3-.8C59.67,45.53,60.68,46.24,62.47,47.45Z"/><path class="cls-4" d="M104.13,100.28a3.16,3.16,0,0,1,3.08,3.53,2.89,2.89,0,0,1-3.17,3c-1.9-.09-3.46-1.24-3.28-3.48C100.91,101.44,102.11,100.44,104.13,100.28Z"/></g></g></svg>