<svg xmlns="http://www.w3.org/2000/svg" viewBox="0 0 131.26 150.02"><defs><style>.cls-1{fill:#93cc9d;}.cls-2{fill:#fff;}</style></defs><title>资源 6</title><g id="图层_2" data-name="图层 2"><g id="图层_1-2" data-name="图层 1"><path class="cls-1" d="M103.23,0H28A28,28,0,0,0,0,28v94a28,28,0,0,0,28,28h75.2a28,28,0,0,0,28-28V28a28,28,0,0,0-28-28Z"/><path class="cls-2" d="M48,84.06,35.71,94.7l.17.56c3.78,0,7.56.09,11.34,0,1.74-.06,3,.37,3.66,2,2.08,5.39,6,7,11.58,6.3a72,72,0,0,1,11.75,0,3.3,3.3,0,0,0,3.47-1.93c.42-.84,1.16-1.52,1.51-2.37,1.46-3.55,4.2-4.39,7.75-4.11,2.87.23,5.77,0,9.38,0L84,84.07c3.37-.45,6.08-.31,8.54,2a110.14,110.14,0,0,0,8.7,7.12,3.64,3.64,0,0,1,1.37,4.48c-1.23,4-2.53,7.94-3.65,12-.56,2-1.62,2.67-3.67,2.66-10.82-.08-21.65,0-32.48,0-9,0-17.9,0-26.85,0-2,0-3.07-.66-3.63-2.68-1.11-4-2.46-8-3.74-11.93A3.57,3.57,0,0,1,30,93.19a86.35,86.35,0,0,0,8.3-6.81C41,83.75,44.09,83.6,48,84.06Z"/><path class="cls-2" d="M61.12,67.13c0-8.13,0-15.45,0-22.76a16.4,16.4,0,0,1,.14-3.06,4,4,0,0,1,3.53-3.51c2.08-.26,3.36.91,4.19,2.69a7.48,7.48,0,0,1,.51,3.25c0,7.85,0,15.69,0,23.75,1.18-.39,1.62-1.35,2.23-2q6.5-7.57,12.92-15.2c2.47-2.92,4.36-3.47,6.46-1.82s2.48,5.3.43,7.81c-2.75,3.37-5.62,6.64-8.44,10-5.36,6.3-10.75,12.57-16,18.92-1.11,1.33-1.67,1.35-2.79,0-8-9.52-16.11-19-24.18-28.46a5.93,5.93,0,0,1-1.63-4.92,4.53,4.53,0,0,1,3.11-4c1.92-.61,3.26.35,4.43,1.73q6.62,7.8,13.24,15.6C59.65,65.56,60.11,66,61.12,67.13Z"/></g></g></svg>