<svg xmlns="http://www.w3.org/2000/svg" viewBox="0 0 131.26 150.02"><defs><style>.cls-1{fill:#2a88aa;}.cls-2{fill:#fff;}</style></defs><title>资源 5</title><g id="图层_2" data-name="图层 2"><g id="图层_1-2" data-name="图层 1"><path class="cls-1" d="M103.23,0H28A28,28,0,0,0,0,28v94a28,28,0,0,0,28,28h75.2a28,28,0,0,0,28-28V28a28,28,0,0,0-28-28Z"/><path class="cls-2" d="M46.58,68.24c9-5.93,18.23-7.67,28.21-4.88,15.33,4.3,25.11,19.47,23,35.64a32.18,32.18,0,0,1-31.61,27.8c-12.67,0-22.39-5.39-28.59-16.33C31.28,99.31,31.8,88,38.54,77a8.35,8.35,0,0,0,1.22-4.58c0-8.63-.18-17.27.28-25.87C40.74,33.62,52.75,23,66,23.22c13.48.2,25,11.05,25.7,24.1.08,1.4-.23,2-1.77,2-4.41.23-4.41.31-5.25-3.79a19.37,19.37,0,0,0-20-15.64A19.12,19.12,0,0,0,46.62,47.37c-.46,6.05-.16,12.17-.19,18.25C46.43,66.32,46.51,67,46.58,68.24Zm22.16,23a2.74,2.74,0,0,0-2.74-3c-1.94-.14-3.28.93-3.35,2.75-.17,4.45-.15,8.92,0,13.37a2.82,2.82,0,0,0,3.24,2.88A2.86,2.86,0,0,0,68.76,104c0-2,0-4.06,0-6.08C68.75,95.72,68.78,93.49,68.74,91.26Z"/></g></g></svg>