<?xml version="1.0" encoding="UTF-8" standalone="no"?>
<svg class="icon" style="width: 5.712890625em; height: 1em;vertical-align: middle;fill: currentColor;overflow: hidden;" viewBox="0 0 5850 1024" version="1.1" xmlns="http://www.w3.org/2000/svg" p-id="6431"><path d="M3028.203497 0.02517h217.429964v1023.73983h-217.429964z m-1697.247718 0H176.874971A173.709971 173.709971 0 0 0 0.352 170.688142v853.077858h207.466965V235.272131a69.624988 69.624988 0 0 1 70.327989-68.334989h371.799938V1024h207.467966V166.702142h371.682938a69.624988 69.624988 0 0 1 70.327988 68.335989v788.727869h207.466966V170.688142A173.592971 173.592971 0 0 0 1331.072779 0.02517z m604.1169 788.727869V595.351071h825.649863V428.440099h-825.649863V235.272131a69.506988 69.506988 0 0 1 70.327988-68.334989h798.690867V0.02517h-900.19685a173.592971 173.592971 0 0 0-176.523971 170.662972v682.414886a173.592971 173.592971 0 0 0 176.639971 170.662972h900.08085V857.088028h-798.689867a69.624988 69.624988 0 0 1-70.328988-68.334989zM4403.935269 0.02517h-928.211846v166.676972h768.449872l-737.388877 632.951895c-118.26798 97.755984-41.375993 223.876963 56.84899 223.876963h939.463844V857.088028h-783.45287l738.442878-632.950895C4577.29324 120.52015 4504.972252 0.14217 4404.637269 0.14217z m1238.122794 0V788.870039a69.506988 69.506988 0 0 1-70.327988 68.217989h-592.512902a69.506988 69.506988 0 0 1-70.327988-68.217989V0.02517h-206.997966v853.077858a173.709971 173.709971 0 0 0 176.405971 170.662972h795.173868a173.475971 173.475971 0 0 0 176.522971-170.662972V0.02517z m0 0" fill="#008CFF" p-id="6432"></path></svg>