<?xml version="1.0" encoding="UTF-8" standalone="no"?>
<svg
   xmlns:dc="http://purl.org/dc/elements/1.1/"
   xmlns:cc="http://creativecommons.org/ns#"
   xmlns:rdf="http://www.w3.org/1999/02/22-rdf-syntax-ns#"
   xmlns:svg="http://www.w3.org/2000/svg"
   xmlns="http://www.w3.org/2000/svg"
   xmlns:sodipodi="http://sodipodi.sourceforge.net/DTD/sodipodi-0.dtd"
   xmlns:inkscape="http://www.inkscape.org/namespaces/inkscape"
   class="icon"
   style="width: 1em; height: 1em;vertical-align: middle;fill: currentColor;overflow: hidden;"
   viewBox="0 0 1024 1024"
   version="1.1"
   p-id="6844"
   id="svg6"
   sodipodi:docname="nubia.svg"
   inkscape:version="0.92.4 (5da689c313, 2019-01-14)">
  <metadata
     id="metadata12">
    <rdf:RDF>
      <cc:Work
         rdf:about="">
        <dc:format>image/svg+xml</dc:format>
        <dc:type
           rdf:resource="http://purl.org/dc/dcmitype/StillImage" />
      </cc:Work>
    </rdf:RDF>
  </metadata>
  <defs
     id="defs10" />
  <sodipodi:namedview
     pagecolor="#ffffff"
     bordercolor="#666666"
     borderopacity="1"
     objecttolerance="10"
     gridtolerance="10"
     guidetolerance="10"
     inkscape:pageopacity="0"
     inkscape:pageshadow="2"
     inkscape:window-width="1391"
     inkscape:window-height="723"
     id="namedview8"
     showgrid="false"
     inkscape:zoom="0.23046875"
     inkscape:cx="512"
     inkscape:cy="512"
     inkscape:window-x="0"
     inkscape:window-y="0"
     inkscape:window-maximized="0"
     inkscape:current-layer="svg6" />
  <path
     d="M512 512m-512 0a512 512 0 1 0 1024 0 512 512 0 1 0-1024 0Z"
     fill="#7F7F7F"
     p-id="6845"
     id="path2"
     style="fill:#e60122;fill-opacity:1" />
  <path
     d="M162.2528 627.2V531.6608c1.2288-12.5952 5.5296-22.4256 12.9024-29.184 6.4512-6.144 14.1312-9.216 22.7328-9.216 23.9616 0 35.9424 12.9024 35.9424 39.0144V627.2h35.0208V529.2032c0-43.6224-19.968-65.1264-59.5968-65.1264-9.5232 0-18.1248 1.8432-26.112 5.8368-7.68 3.6864-14.7456 9.5232-20.8896 16.896v-18.432H127.232V627.2h35.0208z m200.6016 4.3008c19.6608 0 36.2496-8.2944 49.7664-24.8832V627.2h35.0208V468.3776h-35.0208v97.0752c-3.072 11.3664-8.2944 20.2752-15.36 27.0336-7.0656 6.4512-14.4384 9.8304-22.1184 9.8304-12.288 0-20.8896-3.072-26.4192-8.9088-5.5296-6.144-7.9872-15.36-7.9872-28.2624v-96.768h-35.0208V567.296c0 42.7008 19.0464 64.2048 57.1392 64.2048z m202.1376 0c23.3472 0 41.7792-8.2944 55.296-24.8832 12.288-15.36 18.432-35.328 18.432-59.5968 0-23.3472-6.144-42.7008-18.1248-58.0608-13.2096-16.5888-31.0272-24.8832-53.76-24.8832-18.432 0-34.4064 8.6016-47.3088 26.112V403.5584h-35.0208V627.2h32.5632v-16.896c11.0592 14.1312 27.0336 21.1968 47.9232 21.1968z m-5.2224-28.2624c-13.824 0-24.2688-5.5296-31.6416-16.2816-6.7584-9.8304-9.8304-22.7328-9.8304-38.0928v-2.4576c0-16.896 3.9936-30.4128 12.288-40.2432 7.3728-9.216 16.5888-13.824 27.9552-13.824 15.6672 0 27.3408 5.2224 34.7136 15.6672 6.144 8.9088 9.5232 21.8112 9.5232 39.0144s-3.072 30.4128-8.9088 39.6288c-7.3728 11.0592-18.7392 16.5888-34.0992 16.5888z m133.3248-153.2928c6.7584 0 12.288-2.1504 16.896-6.4512 4.608-4.3008 7.0656-10.1376 7.0656-16.896s-2.4576-12.288-6.7584-16.5888c-4.608-4.3008-10.4448-6.4512-17.2032-6.4512-6.7584 0-12.288 2.1504-16.896 6.4512-4.608 4.3008-6.7584 9.8304-6.7584 16.5888s2.1504 12.288 6.7584 16.896c4.608 4.3008 10.1376 6.4512 16.896 6.4512zM710.6048 627.2V468.3776h-35.0208V627.2h35.0208z m90.9312 4.3008c13.824 0 25.8048-2.4576 35.9424-7.0656 8.9088-4.3008 16.5888-10.1376 22.7328-18.1248V627.2h32.5632V525.824c0-19.3536-4.9152-34.0992-14.7456-44.2368-11.0592-11.6736-28.5696-17.5104-51.9168-17.5104-20.2752 0-36.2496 3.3792-47.9232 10.752-13.824 7.9872-22.4256 20.8896-25.8048 38.4l34.7136 2.7648c1.8432-8.2944 6.4512-14.4384 13.2096-18.432 5.8368-3.6864 13.5168-5.2224 23.3472-5.2224 22.7328 0 34.0992 10.1376 34.0992 31.0272v6.144l-34.7136 0.9216c-23.3472 0.6144-41.472 5.5296-54.3744 14.7456-14.1312 9.5232-20.8896 23.3472-20.8896 41.1648 0 13.2096 4.9152 23.9616 14.7456 32.5632 9.5232 8.2944 22.4256 12.5952 39.0144 12.5952z m7.9872-26.7264c-7.68 0-13.824-2.1504-18.7392-5.8368-4.9152-3.6864-7.0656-8.2944-7.0656-13.824 0-19.0464 13.824-28.8768 41.7792-29.4912l32.256-0.9216v7.9872c0 12.288-4.9152 22.4256-14.1312 30.4128-9.216 7.68-20.5824 11.6736-34.0992 11.6736z"
     fill="#FFFFFF"
     p-id="6846"
     id="path4" />
</svg>
