<?xml version="1.0" encoding="UTF-8" standalone="no"?>
<svg
   xmlns:dc="http://purl.org/dc/elements/1.1/"
   xmlns:cc="http://creativecommons.org/ns#"
   xmlns:rdf="http://www.w3.org/1999/02/22-rdf-syntax-ns#"
   xmlns:svg="http://www.w3.org/2000/svg"
   xmlns="http://www.w3.org/2000/svg"
   xmlns:sodipodi="http://sodipodi.sourceforge.net/DTD/sodipodi-0.dtd"
   xmlns:inkscape="http://www.inkscape.org/namespaces/inkscape"
   class="icon"
   style="width: 1em; height: 1em;vertical-align: middle;fill: currentColor;overflow: hidden;"
   viewBox="0 0 1024 1024"
   version="1.1"
   p-id="876"
   id="svg4"
   sodipodi:docname="oppo.svg"
   inkscape:version="0.92.4 (5da689c313, 2019-01-14)">
  <metadata
     id="metadata10">
    <rdf:RDF>
      <cc:Work
         rdf:about="">
        <dc:format>image/svg+xml</dc:format>
        <dc:type
           rdf:resource="http://purl.org/dc/dcmitype/StillImage" />
      </cc:Work>
    </rdf:RDF>
  </metadata>
  <defs
     id="defs8" />
  <sodipodi:namedview
     pagecolor="#ffffff"
     bordercolor="#666666"
     borderopacity="1"
     objecttolerance="10"
     gridtolerance="10"
     guidetolerance="10"
     inkscape:pageopacity="0"
     inkscape:pageshadow="2"
     inkscape:window-width="1920"
     inkscape:window-height="1017"
     id="namedview6"
     showgrid="false"
     inkscape:zoom="0.23046875"
     inkscape:cx="512"
     inkscape:cy="512"
     inkscape:window-x="-8"
     inkscape:window-y="-8"
     inkscape:window-maximized="1"
     inkscape:current-layer="svg4" />
  <path
     d="M640 460.8c-51.2 0-83.2 25.6-83.2 60.8 0 35.2 32 60.8 83.2 60.8s83.2-25.6 83.2-60.8C720 486.4 688 464 640 460.8z m-252.8 0c-51.2 0-83.2 25.6-83.2 60.8 0 35.2 32 60.8 83.2 60.8s83.2-25.6 83.2-60.8c-3.2-35.2-35.2-57.6-83.2-60.8z m-252.8 0c-51.2 0-83.2 25.6-83.2 60.8 0 35.2 32 60.8 83.2 60.8s83.2-25.6 83.2-60.8c-3.2-35.2-35.2-57.6-83.2-60.8zM512 0C230.4 0 0 230.4 0 512s230.4 512 512 512 512-230.4 512-512S793.6 0 512 0zM134.4 611.2C64 611.2 16 572.8 16 521.6 16 470.4 64 432 131.2 432h3.2c70.4 0 115.2 38.4 115.2 89.6 0 51.2-44.8 89.6-115.2 89.6z m252.8 0c-35.2 0-64-9.6-83.2-22.4v80h-35.2V441.6H304v16c19.2-12.8 48-22.4 80-22.4h3.2c70.4 0 115.2 38.4 115.2 89.6 3.2 51.2-48 86.4-115.2 86.4z m252.8 0c-35.2 0-64-9.6-83.2-22.4v80h-35.2V441.6h35.2v16c19.2-12.8 48-22.4 80-22.4h3.2c70.4 0 115.2 38.4 115.2 89.6 0 51.2-44.8 86.4-115.2 86.4z m252.8 0c-70.4 0-118.4-38.4-118.4-89.6 0-51.2 48-89.6 115.2-89.6h3.2c70.4 0 115.2 38.4 115.2 89.6 0 51.2-48 89.6-115.2 89.6z m-3.2-150.4c-51.2 0-83.2 25.6-83.2 60.8 0 35.2 32 60.8 83.2 60.8s83.2-25.6 83.2-60.8c0-35.2-32-57.6-83.2-60.8z"
     fill="#888888"
     p-id="877"
     id="path2"
     style="fill:#046a38;fill-opacity:1" />
</svg>
