<svg xmlns="http://www.w3.org/2000/svg" viewBox="0 0 131.26 150.02"><defs><style>.cls-1{fill:#ebd9b0;}.cls-2{fill:#fff;}</style></defs><title>资源 2</title><g id="图层_2" data-name="图层 2"><g id="图层_1-2" data-name="图层 1"><path class="cls-1" d="M103.23,0H28A28,28,0,0,0,0,28v94a28,28,0,0,0,28,28h75.2a28,28,0,0,0,28-28V28a28,28,0,0,0-28-28Z"/><path class="cls-2" d="M92.59,101.27H38.68a5.68,5.68,0,0,1,0-11.36H92.59a5.68,5.68,0,0,1,0,11.36Z"/><path class="cls-2" d="M92.59,80.61H38.68a5.68,5.68,0,1,1,0-11.35H92.59a5.68,5.68,0,0,1,0,11.35Z"/><path class="cls-2" d="M92.59,60.1H38.68a5.68,5.68,0,1,1,0-11.35H92.59a5.68,5.68,0,0,1,0,11.35Z"/></g></g></svg>