<?xml version="1.0" encoding="UTF-8" standalone="no"?>
<svg
   xmlns:dc="http://purl.org/dc/elements/1.1/"
   xmlns:cc="http://creativecommons.org/ns#"
   xmlns:rdf="http://www.w3.org/1999/02/22-rdf-syntax-ns#"
   xmlns:svg="http://www.w3.org/2000/svg"
   xmlns="http://www.w3.org/2000/svg"
   xmlns:sodipodi="http://sodipodi.sourceforge.net/DTD/sodipodi-0.dtd"
   xmlns:inkscape="http://www.inkscape.org/namespaces/inkscape"
   class="icon"
   style="width: 1em; height: 1em;vertical-align: middle;fill: currentColor;overflow: hidden;"
   viewBox="0 0 1024 1024"
   version="1.1"
   p-id="2430"
   id="svg4"
   sodipodi:docname="samsung.svg"
   inkscape:version="0.92.4 (5da689c313, 2019-01-14)">
  <metadata
     id="metadata10">
    <rdf:RDF>
      <cc:Work
         rdf:about="">
        <dc:format>image/svg+xml</dc:format>
        <dc:type
           rdf:resource="http://purl.org/dc/dcmitype/StillImage" />
      </cc:Work>
    </rdf:RDF>
  </metadata>
  <defs
     id="defs8" />
  <sodipodi:namedview
     pagecolor="#ffffff"
     bordercolor="#666666"
     borderopacity="1"
     objecttolerance="10"
     gridtolerance="10"
     guidetolerance="10"
     inkscape:pageopacity="0"
     inkscape:pageshadow="2"
     inkscape:window-width="1085"
     inkscape:window-height="821"
     id="namedview6"
     showgrid="false"
     inkscape:zoom="0.23046875"
     inkscape:cx="512"
     inkscape:cy="512"
     inkscape:window-x="0"
     inkscape:window-y="0"
     inkscape:window-maximized="0"
     inkscape:current-layer="svg4" />
  <path
     d="M185.131441 475.67877c-0.656963 5.53711-1.627057 10.210549-1.684362 14.897291-0.143263 11.782348 4.755304 20.820188 15.618722 26.095332 5.223978 2.536776 10.917654 4.314259 15.677051 7.510044 2.768043 1.858324 4.813632 5.636371 5.77861 8.960069 0.446162 1.534959-2.069125 5.206582-3.956101 5.866614-3.527336 1.232061-6.853082-0.24764-7.670704-4.616134-0.469698-2.499937-0.762363-5.033643-1.180895-7.881504h-25.054629c-4.167926 15.356756 3.473101 28.684296 18.674315 30.92022 7.966439 1.172709 16.382109 0.856507 24.397666-0.234337 10.215666-1.393743 18.479887-6.747681 20.877493-17.550725 2.814092-12.694113 1.197268-24.795732-9.812483-33.316803-4.828982-3.731998-10.977006-5.752004-16.493649-8.612145-3.225461-1.673106-7.116071-2.839675-9.343809-5.41636-1.679245-1.939165-1.89721-5.898337-1.329275-8.66331 0.231267-1.12359 4.694929-2.565429 6.452969-1.876743 1.966795 0.774643 4.266164 3.789303 4.282537 5.846148 0.041956 5.347798 2.418073 6.701632 7.163143 6.415106 4.296863-0.258896 8.623401-0.183172 12.93152-0.045025 3.926426 0.124843 5.088902-1.671059 5.227048-5.459339 0.543376-15.066137-5.330402-22.36538-20.337187-24.605397-3.350304-0.500397-6.731308-0.792039-12.016685-1.400906 10.081613-4.054339 18.516726-7.567349 27.03882-10.851139 71.033823-27.367301 144.133701-47.684022 218.851427-61.74732 45.624107-8.587586 91.557252-15.978926 137.626497-21.669532 64.443731-7.962346 129.269156-10.881838 194.188724-6.729261 37.838793 2.422166 75.622328 6.42841 111.528096 19.473517 13.782911 5.008061 27.453259 11.757788 39.330774 20.283975 20.99722 15.07637 24.715915 36.639478 10.79588 58.473763-6.509251 10.207479-14.902408 19.577894-23.844058 27.801183-24.313755 22.36231-53.124941 37.956474-82.767051 52.743248v-37.21253c-9.18315 0-17.783015-0.168846-26.364461 0.166799-1.381463 0.055259-3.91517 2.483564-3.789303 3.571338 0.415462 3.63069-2.855024 8.366551 2.530636 10.759042 0.912789 0.405229 2.010797 0.398066 3.52836 0.673335 0 4.313236-0.011256 8.366551 0.001023 12.420891 0.016373 4.067642-1.76418 6.79987-6.012947 6.783497-4.230348-0.016373-6.046716-2.883677-6.145977-6.817266-0.12689-4.953825-0.062422-9.914814-0.070608-14.873756-0.017396-9.700943-0.132006-19.402909 0.014326-29.101805 0.057305-3.718695 0.557702-7.602142 5.551436-8.023744 3.737114-0.314155 6.388501 1.043772 6.622838 5.204536 0.12996 2.342348 0.021489 4.696975 0.021489 7.996114 7.510044 0 14.56574 0.279363 21.557992-0.262989 1.221828-0.095167 3.148713-3.667529 3.098571-5.591345-0.400113-15.551184-10.135848-25.463951-25.869181-26.841322-21.853727-1.914606-34.527374 7.776104-36.220946 29.648251-1.156336 14.950504-0.699941 30.118971 0.220011 45.11757 0.781806 12.765745 7.496741 18.981307 20.249183 21.500686 1.011027 0.200568 1.990331 0.567935 4.718465 1.363044-5.918803 2.445702-10.340509 4.325515-14.800078 6.109138-79.372745 31.725562-161.480788 53.990658-245.416455 69.363788-41.443901 7.589862-83.166141 14.065344-125.000946 19.018145-61.681828 7.303336-123.69009 10.4367-185.811939 6.755868-40.435944-2.39556-80.791048-6.368034-119.17424-20.436448-12.594853-4.616134-25.127284-10.621918-36.055171-18.313088-22.938432-16.146749-26.441209-38.341237-11.4334-62.046125 9.489118-14.987343 22.541389-26.561959 36.518729-37.150108 22.595624-17.111726 47.307446-30.671557 72.75093-42.971697 1.13587-0.552585 2.372024-0.889253 3.831259-1.420349z m254.43997 22.310122c0.366344 0.13303 0.731664 0.268106 1.098007 0.399089 0 12.70844-0.225127 25.421996 0.048096 38.121226 0.496304 22.938432-4.245697 17.974373 19.748786 18.676361 4.099365 0.119727 5.113461-1.728364 5.024433-5.456268-0.63138-26.487258-1.187035-52.977585-1.633196-79.467913-0.070608-4.1536-1.706875-5.676279-5.827729-5.596462-9.69071 0.183172-19.391652 0.220011-29.080316-0.020466-4.572132-0.115634-6.251378 1.540076-6.993274 6.136767-2.046612 12.661368-4.758374 25.216311-7.568373 39.695071-2.628874-16.341177-4.939499-30.695093-7.245008-45.038776h-41.831734c0 25.255197 0.029676 49.78794-0.010233 74.31966-0.024559 15.467273-0.065492 15.186887 15.496949 15.533788 6.187933 0.137123 8.28571-1.717108 8.160867-7.959276-0.335644-17.070794-0.115634-34.151821-0.115634-51.229778 4.524037 14.362102 7.540743 28.841885 10.744715 43.280736 3.510964 15.819291 3.597945 15.426341 19.816325 15.950273 6.649444 0.214894 8.822946-2.257413 9.963932-8.302083 3.093455-16.401552 6.763031-32.700773 10.203387-49.041949z m290.917765 14.292517c-0.397043 0.11154-0.795109 0.220011-1.193175 0.329505-0.861624-1.908466-1.755993-3.802606-2.580778-5.727445-5.41943-12.649088-10.766205-25.327852-16.300244-37.926798-0.788969-1.794879-2.39863-4.523013-3.724835-4.578272-9.347902-0.399089-18.721387-0.211824-27.984355-0.211824v89.641623h23.374361v-48.300053c1.949398 1.470491 2.827395 3.099594 3.597944 4.776794 6.01704 13.08911 11.95631 26.214035 18.085914 39.249932 0.825808 1.753947 2.523473 4.317329 3.918239 4.381797 8.710382 0.404206 17.447371 0.203638 26.224268 0.203638v-89.481987H730.491223c-0.002047 16.270569-0.002047 31.956829-0.002047 47.64309z m-122.29737-48.228421c-6.711865 0-12.713556 0.378623-18.645662-0.104377-6.061043-0.494257-8.232498 1.305739-8.083096 7.732101 0.419556 18.313088 0.105401 36.640502 0.159636 54.960753 0.054235 19.076474 9.216919 29.4221 28.126594 30.974455 20.042475 1.645476 39.219233-5.599532 38.190811-34.224475-0.6191-17.222243-0.101307-34.483372-0.128937-51.726082-0.00307-2.300392-0.206708-4.602831-0.323365-7.002484h-25.828248c0 3.15997 0.00307 5.714142 0 8.266267-0.017396 19.184945-0.051165 38.367843-0.039909 57.551764 0.00307 3.959172-0.402159 7.237845-5.560646 7.684006-5.322216 0.456395-7.615445-1.772366-7.636934-6.907317-0.058328-13.793144-0.166799-27.583219-0.224104-41.376362-0.033769-8.340969-0.00614-16.682961-0.00614-25.828249z m-78.223572 28.387537c7.017834 0 13.473873 0.224104 19.894095-0.166799 1.475608-0.089028 3.931542-2.170432 4.062526-3.517103 1.177825-12.08627-2.145873-23.493064-16.48751-25.52842-9.222035-1.306762-18.929118-1.01819-28.158316 0.325412-4.738931 0.687662-10.214642 4.301979-13.106506 8.244778-9.290597 12.669554-4.38896 34.098609 9.081843 42.073234 5.155417 3.053546 11.013845 4.898567 16.253172 7.826246 2.87856 1.606591 6.081509 3.864004 7.438413 6.652513 1.673106 3.435239 1.617847 8.089235-3.429099 9.411348-3.9121 1.026376-8.268314-0.402159-7.999185-4.995781 0.473791-8.099469-3.843538-8.516977-9.880021-8.058537-4.502547 0.342808-9.078773-0.217964-13.555738 0.252757-1.520633 0.159636-3.798513 2.044566-4.095271 3.479241-2.373047 11.43647 4.837168 23.589254 16.279778 26.711362 11.435447 3.122107 23.052019 2.789533 34.331923-1.115404 8.992815-3.115967 13.95585-9.836019 15.300475-19.11229 2.431376-16.797571-4.40124-28.888957-20.041452-35.768645-3.541663-1.558495-7.228635-2.798742-10.734482-4.431939-2.12029-0.986467-4.816702-2.00568-5.816473-3.806699-1.327228-2.390443-2.072195-5.761214-1.442861-8.309246 0.322341-1.305739 4.51278-2.843768 6.340405-2.279926 2.085498 0.642636 3.870144 3.296069 5.054109 5.475711 0.837064 1.540076 0.459464 3.740184 0.710175 6.638187zM339.568812 554.849924c0.187265-1.046842 0.481977-1.697665 0.381694-2.282996-4.731768-27.947516-9.432837-55.902194-14.450107-83.798545-0.24457-1.366114-3.248997-3.120061-5.014201-3.174296-9.894348-0.309038-19.814278 0.125867-29.701462-0.272199-4.844332-0.193405-6.227842 1.860371-6.922666 6.123464-2.771113 16.953114-5.841032 33.859155-8.731872 50.79385-1.830695 10.708899-3.53757 21.440311-5.435803 32.991392 8.083096 0 15.364943 0.213871 22.609951-0.197498 1.285273-0.074701 3.189645-2.595105 3.49766-4.232395 1.235131-6.534833 1.915629-13.173021 2.867304-19.763112 1.822508-12.610202 3.686972-25.217335 5.53097-37.821398 0.397043 0 0.793062 0.00307 1.190105 0.00614 3.199878 20.586874 6.39771 41.175795 9.574053 61.628616l24.604374-0.001023z"
     p-id="2431"
     id="path2"
     style="fill:#24418d;fill-opacity:1" />
</svg>
