<svg xmlns="http://www.w3.org/2000/svg" viewBox="0 0 131.26 150.02"><defs><style>.cls-1{fill:#f6b859;}.cls-2{fill:#fff;}</style></defs><title>资源 4</title><g id="图层_2" data-name="图层 2"><g id="图层_1-2" data-name="图层 1"><path class="cls-1" d="M103.23,0H28A28,28,0,0,0,0,28v94a28,28,0,0,0,28,28h75.2a28,28,0,0,0,28-28V28a28,28,0,0,0-28-28Z"/><path class="cls-2" d="M65.4,58.51c-9.73,0-19.45-.07-29.17.06-2.42,0-3-.73-3-3.11,0-9.27.17-9.56,9.22-9.56H91.27c5.77,0,6.82,1.05,6.84,6.76a17.91,17.91,0,0,0,0,2.2c.41,2.83-.61,3.78-3.57,3.73C84.84,58.39,75.12,58.51,65.4,58.51Z"/><path class="cls-2" d="M65.79,91.49c9.36,0,18.73.19,28.08-.09,3.65-.11,4.81,1.1,4.27,4.54a22,22,0,0,0,0,2.93c-.1,3.42-1.86,5.22-5.25,5.22q-27.17,0-54.34,0c-3.65,0-5.14-1.76-5.26-5.53C33,91.49,33,91.49,39.9,91.49Z"/><path class="cls-2" d="M80.08,61.31c-2.91,4.75-2.83,9,1.13,12.78.66.63.66,1,0,1.74-3.9,3.79-4,8-1,12.79H50.59c2.91-4.69,3-9.07-1.15-12.94-.84-.77-.25-1.24.27-1.76,3.79-3.76,3.77-7.92.95-12.61Z"/><path class="cls-2" d="M91.41,76.26c6.71,0,6.71,0,6.71,6.64,0,5.93,0,5.93-6,5.93-1.82,0-3.65.08-5.46,0a6.26,6.26,0,0,1,0-12.52C88.25,76.17,89.84,76.26,91.41,76.26Z"/><path class="cls-2" d="M91.39,73.52a45.1,45.1,0,0,1-5.07,0,5.9,5.9,0,0,1-5.66-6.34,6,6,0,0,1,5.66-6c3.26-.22,6.54,0,9.81-.09,1.35,0,2,.51,2,1.93s0,2.68,0,4C98.12,73.66,98.12,73.66,91.39,73.52Z"/><path class="cls-2" d="M39.62,88.81c-6.36,0-6.36,0-6.36-6.52,0-6.06,0-6.06,6.12-6.06,1.7,0,3.41-.08,5.1.08a6.08,6.08,0,0,1,5.63,6.46,6.21,6.21,0,0,1-5.76,6C42.78,88.92,41.2,88.81,39.62,88.81Z"/><path class="cls-2" d="M39.94,61.06c1.45,0,2.92-.11,4.36,0a6.21,6.21,0,0,1,5.8,6.32,6,6,0,0,1-5.56,6.09,14,14,0,0,1-1.45.14c-10.16.57-10.56.11-9.88-10.36.11-1.79.7-2.36,2.37-2.25,1.45.1,2.91,0,4.36,0Z"/></g></g></svg>