<?xml version="1.0" encoding="UTF-8" ?>
<svg class="icon" style="width: 1em; height: 1em;vertical-align: middle;fill: currentColor;overflow: hidden;" viewBox="0 0 1024 1024" version="1.1" xmlns="http://www.w3.org/2000/svg" p-id="7846"><path d="M561.92 377.92v69.12c5.76-2.88 10.56-5.76 16.32-6.72 25.92-7.68 51.84 4.8 62.4 31.68 9.6 25.92 9.6 51.84 0 77.76-6.72 18.24-19.2 32.64-40.32 34.56-24.96 2.88-48.96 0-65.28-23.04-5.76-7.68-8.64-18.24-8.64-27.84-0.96-24.96 0-50.88 0-75.84v-70.08c9.6-2.88 21.12-5.76 32.64-8.64 0-0.96 1.92-0.96 2.88-0.96z m0.96 135.36v27.84c0 2.88 0.96 6.72 2.88 8.64 6.72 6.72 15.36 8.64 24.96 5.76 8.64-2.88 12.48-9.6 13.44-18.24 0.96-14.4 1.92-27.84 0.96-42.24 0-4.8-1.92-10.56-3.84-15.36-3.84-8.64-12.48-12.48-22.08-10.56-11.52 2.88-16.32 8.64-16.32 19.2v24.96z" fill="#000000" p-id="7847"></path><path d="M183.68 642.88c-3.84-7.68-7.68-14.4-12.48-23.04l14.4-5.76c4.8-2.88 10.56-5.76 14.4-10.56 3.84-4.8 6.72-10.56 9.6-16.32 4.8-8.64-4.8-10.56-6.72-15.36-6.72-19.2-15.36-37.44-22.08-56.64-7.68-24-15.36-47.04-24-72 12.48-1.92 24.96-2.88 38.4-4.8 10.56 35.52 21.12 71.04 31.68 105.6 9.6-30.72 20.16-62.4 29.76-94.08 1.92-6.72 4.8-9.6 12.48-8.64 8.64 0.96 18.24 0 27.84 0-0.96 3.84-1.92 6.72-2.88 9.6-16.32 45.12-31.68 89.28-48 134.4-0.96 2.88-1.92 4.8-2.88 6.72-8.64 25.92-24 44.16-50.88 50.88h-8.64zM992 581.44h-35.52v-40.32c0-19.2 0-39.36-0.96-58.56 0-12.48-6.72-15.36-18.24-12.48-14.4 3.84-19.2 10.56-19.2 25.92v84.48h-35.52c-2.88-44.16 3.84-88.32-4.8-134.4 8.64-2.88 18.24-5.76 27.84-7.68 1.92 0 4.8 1.92 5.76 3.84 1.92 2.88 2.88 6.72 3.84 10.56 45.12-20.16 60.48-19.2 76.8 7.68v120.96zM32 568c4.8-7.68 8.64-16.32 13.44-24 11.52 3.84 22.08 8.64 32.64 12.48 5.76 1.92 12.48 1.92 18.24 1.92 7.68-0.96 13.44-4.8 14.4-13.44 0.96-8.64-2.88-13.44-10.56-16.32-7.68-1.92-14.4-3.84-22.08-4.8-24.96-3.84-38.4-17.28-39.36-39.36-0.96-21.12 13.44-39.36 35.52-45.12 24-5.76 47.04-0.96 69.12 11.52-3.84 7.68-7.68 15.36-10.56 23.04-9.6-2.88-19.2-5.76-28.8-7.68-3.84-0.96-8.64-0.96-12.48 0-6.72 0.96-11.52 4.8-11.52 11.52-0.96 6.72 3.84 10.56 9.6 12.48l28.8 8.64c18.24 4.8 29.76 15.36 32.64 34.56 1.92 18.24-7.68 35.52-24.96 45.12-20.16 10.56-40.32 10.56-61.44 3.84-10.56-2.88-21.12-7.68-30.72-12.48C32 568.96 32 568.96 32 568zM351.68 581.44H316.16c-2.88-44.16 3.84-89.28-4.8-133.44 9.6-2.88 21.12-5.76 31.68-8.64 1.92 4.8 3.84 8.64 3.84 9.6 12.48-3.84 24-7.68 36.48-9.6 13.44-1.92 24 5.76 32.64 17.28 10.56-9.6 22.08-17.28 37.44-17.28 20.16 0 41.28 5.76 40.32 36.48v101.76c0 0.96 0 2.88-0.96 3.84h-34.56v-10.56-85.44c0-16.32-7.68-20.16-22.08-13.44-9.6 3.84-15.36 9.6-14.4 21.12 0.96 28.8 0 58.56 0 88.32H387.2c0-2.88-0.96-6.72-0.96-9.6v-77.76c0-4.8 0-10.56-0.96-15.36a19.36 19.36 0 0 0-6.72-8.64c-11.52-4.8-28.8 6.72-28.8 19.2v81.6c1.92 2.88 1.92 5.76 1.92 10.56z" fill="#000000" p-id="7848"></path><path d="M809.6 496c3.84-22.08-3.84-29.76-24-24.96-5.76 0.96-10.56 2.88-16.32 5.76-4.8 1.92-10.56 4.8-16.32 8.64-4.8-8.64-9.6-16.32-15.36-25.92 25.92-14.4 51.84-25.92 82.56-16.32 16.32 4.8 25.92 16.32 25.92 32.64 0.96 23.04 0.96 46.08 0 69.12 0 11.52-6.72 21.12-16.32 27.84-19.2 14.4-41.28 18.24-64.32 13.44-19.2-3.84-28.8-16.32-30.72-35.52-1.92-21.12 4.8-38.4 23.04-45.12 11.52-4.8 24-5.76 36.48-8.64 4.8-1.92 10.56-0.96 15.36-0.96z m-0.96 24c-7.68 0.96-14.4 0.96-21.12 2.88-7.68 1.92-12.48 6.72-13.44 15.36-0.96 9.6 0.96 18.24 10.56 23.04 7.68 4.8 23.04-1.92 24-10.56 0.96-9.6 0-19.2 0-30.72z" fill="#000000" p-id="7849"></path><path d="M710.72 411.52c0 9.6-7.68 18.24-18.24 18.24-10.56 0-18.24-7.68-18.24-18.24a18.24 18.24 0 1 1 36.48 0z" fill="#F5A61B" p-id="7850"></path><path d="M712.64 515.2c0 38.4-8.64 69.12-20.16 69.12-10.56 0-20.16-30.72-20.16-69.12 0-38.4 8.64-69.12 20.16-69.12s20.16 30.72 20.16 69.12z" fill="#147CA8" p-id="7851"></path></svg>