<?xml version="1.0" standalone="no"?><!DOCTYPE svg PUBLIC "-//W3C//DTD SVG 1.1//EN" "http://www.w3.org/Graphics/SVG/1.1/DTD/svg11.dtd"><svg t="1701139478583" class="icon" viewBox="0 0 1024 1024" version="1.1" xmlns="http://www.w3.org/2000/svg" p-id="5678" width="48" height="48" xmlns:xlink="http://www.w3.org/1999/xlink"><path d="M827.52 1024h-631.04A51.8016 51.8016 0 0 1 144.6912 972.2112V789.5936a19.2 19.2 0 0 1 8.2048-15.7312l42.816-27.7888a10.8288 10.8288 0 0 0 4.6592-8.96v-119.3728a10.8672 10.8672 0 0 0-10.7008-10.8544l-34.2912-0.4736A10.8544 10.8544 0 0 1 144.6912 595.5584V438.6688a19.2 19.2 0 0 1 8.96-16.1792L213.0304 369.92a19.2 19.2 0 0 0 8.96-16.192V37.8496A37.8496 37.8496 0 0 1 259.776 0h581.6832a37.8496 37.8496 0 0 1 37.8496 37.8496v934.4A51.8016 51.8016 0 0 1 827.52 1024zM393.0752 553.2032l-35.6224 226.1248h64.768l35.6224-226.1248h89.0752l4.8128-46.6944H308.864l-4.8512 46.6944z m233.1904 110.6048h121.4464l6.4768-46.6944h-121.4464l11.328-63.9104h129.5488l4.864-46.6944H585.7792L545.3312 779.328h63.1552zM292.0704 213.4784V42.3296a3.9552 3.9552 0 0 0-3.9552-3.968h-35.2a3.968 3.968 0 0 0-3.968 3.968v171.1488a3.9552 3.9552 0 0 0 3.968 3.9552h35.2a3.9552 3.9552 0 0 0 3.9552-3.9552z m55.9232 0V42.3296a3.968 3.968 0 0 0-3.968-3.968h-35.2a3.968 3.968 0 0 0-3.968 3.968v171.1488a3.9552 3.9552 0 0 0 3.968 3.9552h35.2a3.9552 3.9552 0 0 0 3.968-3.9552z m55.9104 0V42.3296a3.968 3.968 0 0 0-3.968-3.968h-35.2a3.968 3.968 0 0 0-3.968 3.968v171.1488a3.9552 3.9552 0 0 0 3.968 3.9552h35.2a3.9552 3.9552 0 0 0 3.968-3.9552z m55.9104 0V16.768a3.968 3.968 0 0 0-3.968-3.968h-35.2a3.968 3.968 0 0 0-3.968 3.968v196.7104a3.9552 3.9552 0 0 0 3.968 3.9552h35.2a3.9552 3.9552 0 0 0 3.968-3.9552z m55.9104 0V42.3296a3.968 3.968 0 0 0-3.968-3.968h-35.2a3.9552 3.9552 0 0 0-3.9552 3.968v171.1488a3.9552 3.9552 0 0 0 3.9552 3.9552h35.2a3.9552 3.9552 0 0 0 3.968-3.9552z m55.9104 0V42.3296a3.9552 3.9552 0 0 0-3.9552-3.968H532.5312a3.9552 3.9552 0 0 0-3.9552 3.968v171.1488a3.9552 3.9552 0 0 0 3.9552 3.9552h35.2128a3.9552 3.9552 0 0 0 3.8912-3.9552z m55.9232 0V42.3296a3.968 3.968 0 0 0-3.968-3.968h-35.2a3.968 3.968 0 0 0-3.968 3.968v171.1488a3.9552 3.9552 0 0 0 3.968 3.9552h35.2a3.9552 3.9552 0 0 0 3.968-3.9552z m55.9104 0V16.768a3.968 3.968 0 0 0-3.968-3.968h-35.2a3.968 3.968 0 0 0-3.968 3.968v196.7104a3.9552 3.9552 0 0 0 3.968 3.9552h35.2a3.9552 3.9552 0 0 0 3.968-3.9552z m55.9104 0V42.3296a3.968 3.968 0 0 0-3.968-3.968H700.2112a3.968 3.968 0 0 0-3.968 3.968v171.1488a3.9552 3.9552 0 0 0 3.968 3.9552h35.2a3.9552 3.9552 0 0 0 3.968-3.9552z m55.9104 0V42.3296a3.968 3.968 0 0 0-3.968-3.968h-35.2a3.968 3.968 0 0 0-3.968 3.968v171.1488a3.9552 3.9552 0 0 0 3.968 3.9552h35.2a3.9552 3.9552 0 0 0 3.968-3.9552z m55.936 0V42.3296a3.968 3.968 0 0 0-3.968-3.968h-35.2a3.968 3.968 0 0 0-3.968 3.968v171.1488a3.9552 3.9552 0 0 0 3.968 3.9552h35.2a3.9552 3.9552 0 0 0 3.9936-3.9552z" p-id="5679" fill="#d89614"></path></svg>