<svg xmlns="http://www.w3.org/2000/svg" viewBox="0 0 131.26 150.02"><defs><style>.cls-1{fill:#438c82;}.cls-2{fill:#fff;}</style></defs><title>资源 7</title><g id="图层_2" data-name="图层 2"><g id="图层_1-2" data-name="图层 1"><path class="cls-1" d="M103.23,0H28A28,28,0,0,0,0,28v94a28,28,0,0,0,28,28h75.2a28,28,0,0,0,28-28V28a28,28,0,0,0-28-28Z"/><path class="cls-2" d="M87.05,115H44.21a4.52,4.52,0,0,1,0-9H87.05a4.52,4.52,0,0,1,0,9Z"/><path class="cls-2" d="M87.05,98.56H44.21a4.51,4.51,0,1,1,0-9H87.05a4.51,4.51,0,1,1,0,9Z"/><path class="cls-2" d="M93.68,69.47a4.51,4.51,0,0,1-6.38,0L69.7,51.86V75.27a4.51,4.51,0,0,1-9,0V52.76L44,69.47a4.51,4.51,0,1,1-6.38-6.38L65.63,35,93.68,63.09a4.51,4.51,0,0,1,0,6.38Z"/></g></g></svg>