<?xml version="1.0" encoding="UTF-8" standalone="no"?>
<svg
   xmlns:dc="http://purl.org/dc/elements/1.1/"
   xmlns:cc="http://creativecommons.org/ns#"
   xmlns:rdf="http://www.w3.org/1999/02/22-rdf-syntax-ns#"
   xmlns:svg="http://www.w3.org/2000/svg"
   xmlns="http://www.w3.org/2000/svg"
   xmlns:sodipodi="http://sodipodi.sourceforge.net/DTD/sodipodi-0.dtd"
   xmlns:inkscape="http://www.inkscape.org/namespaces/inkscape"
   class="icon"
   style="width: 1em; height: 1em;vertical-align: middle;fill: currentColor;overflow: hidden;"
   viewBox="0 0 1024 1024"
   version="1.1"
   p-id="507"
   id="svg4"
   sodipodi:docname="vivo.svg"
   inkscape:version="0.92.4 (5da689c313, 2019-01-14)">
  <metadata
     id="metadata10">
    <rdf:RDF>
      <cc:Work
         rdf:about="">
        <dc:format>image/svg+xml</dc:format>
        <dc:type
           rdf:resource="http://purl.org/dc/dcmitype/StillImage" />
      </cc:Work>
    </rdf:RDF>
  </metadata>
  <defs
     id="defs8" />
  <sodipodi:namedview
     pagecolor="#ffffff"
     bordercolor="#666666"
     borderopacity="1"
     objecttolerance="10"
     gridtolerance="10"
     guidetolerance="10"
     inkscape:pageopacity="0"
     inkscape:pageshadow="2"
     inkscape:window-width="1286"
     inkscape:window-height="819"
     id="namedview6"
     showgrid="false"
     inkscape:zoom="0.23046875"
     inkscape:cx="512"
     inkscape:cy="512"
     inkscape:window-x="0"
     inkscape:window-y="0"
     inkscape:window-maximized="0"
     inkscape:current-layer="svg4" />
  <path
     d="M512 1024C230.4 1024 0 793.6 0 512S230.4 0 512 0s512 230.4 512 512-230.4 512-512 512z m364.8-566.4h-96c-51.2 0-89.6 38.4-89.6 83.2v3.2c0 44.8 41.6 83.2 89.6 83.2h96c51.2 0 89.6-38.4 89.6-83.2v-3.2c0-48-41.6-83.2-89.6-83.2z m51.2 83.2c0 32-28.8 60.8-67.2 60.8h-70.4c-35.2 0-67.2-25.6-67.2-60.8v-3.2c0-32 28.8-60.8 67.2-60.8H864c35.2 3.2 64 28.8 64 64z m-732.8 86.4c19.2 0 35.2-6.4 48-25.6l86.4-115.2c3.2-3.2 3.2-6.4 3.2-9.6 0-6.4-3.2-9.6-9.6-12.8-3.2-3.2-6.4-3.2-9.6-3.2-6.4 0-12.8 3.2-16 6.4l-86.4 115.2c-6.4 6.4-9.6 9.6-16 9.6s-12.8-3.2-16-9.6l-86.4-115.2c-3.2-3.2-9.6-6.4-16-6.4-3.2 0-6.4 0-9.6 3.2-6.4 3.2-9.6 9.6-9.6 12.8s0 6.4 3.2 9.6l86.4 115.2c12.8 16 28.8 25.6 48 25.6z m358.4 0c19.2 0 35.2-6.4 48-25.6l86.4-115.2c3.2-3.2 3.2-6.4 3.2-9.6 0-6.4-3.2-9.6-9.6-12.8-3.2-3.2-6.4-3.2-9.6-3.2-6.4 0-12.8 3.2-16 6.4l-86.4 115.2c-6.4 6.4-9.6 9.6-16 9.6s-12.8-3.2-16-9.6l-86.4-115.2c-3.2-3.2-9.6-6.4-16-6.4-3.2 0-6.4 0-9.6 3.2-6.4 3.2-9.6 9.6-9.6 12.8s0 6.4 3.2 9.6l86.4 115.2c9.6 16 28.8 25.6 48 25.6z m-153.6-208L380.8 400s-3.2-3.2-6.4-3.2-3.2 0-6.4 3.2l-19.2 19.2c-3.2 3.2-3.2 6.4 0 9.6L368 448s3.2 3.2 6.4 3.2 3.2 0 6.4-3.2l19.2-19.2 3.2-3.2c-3.2-3.2-3.2-6.4-3.2-6.4z m-25.6 38.4c-9.6 0-19.2 6.4-19.2 16V608c0 9.6 9.6 16 19.2 16s19.2-6.4 19.2-16v-131.2c0-9.6-9.6-19.2-19.2-19.2z"
     fill="#888888"
     p-id="508"
     id="path2"
     style="fill:#415fff;fill-opacity:1" />
</svg>
