<?xml version="1.0" encoding="UTF-8" standalone="no"?>
<!-- Created with Inkscape (http://www.inkscape.org/) -->

<svg
   xmlns:dc="http://purl.org/dc/elements/1.1/"
   xmlns:cc="http://creativecommons.org/ns#"
   xmlns:rdf="http://www.w3.org/1999/02/22-rdf-syntax-ns#"
   xmlns:svg="http://www.w3.org/2000/svg"
   xmlns="http://www.w3.org/2000/svg"
   xmlns:sodipodi="http://sodipodi.sourceforge.net/DTD/sodipodi-0.dtd"
   xmlns:inkscape="http://www.inkscape.org/namespaces/inkscape"
   class="icon"
   style="width: 1em; height: 1em;vertical-align: middle;fill: currentColor;overflow: hidden;"
   viewBox="0 0 1024 1024"
   version="1.1"
   p-id="2184"
   id="svg4"
   sodipodi:docname="windowsphone.svg"
   inkscape:version="0.92.4 (5da689c313, 2019-01-14)">
  <metadata
     id="metadata10">
    <rdf:RDF>
      <cc:Work
         rdf:about="">
        <dc:format>image/svg+xml</dc:format>
        <dc:type
           rdf:resource="http://purl.org/dc/dcmitype/StillImage" />
      </cc:Work>
    </rdf:RDF>
  </metadata>
  <defs
     id="defs8" />
  <sodipodi:namedview
     pagecolor="#ffffff"
     bordercolor="#666666"
     borderopacity="1"
     objecttolerance="10"
     gridtolerance="10"
     guidetolerance="10"
     inkscape:pageopacity="0"
     inkscape:pageshadow="2"
     inkscape:window-width="1920"
     inkscape:window-height="1017"
     id="namedview6"
     showgrid="false"
     inkscape:zoom="0.23046875"
     inkscape:cx="512"
     inkscape:cy="512"
     inkscape:window-x="-8"
     inkscape:window-y="-8"
     inkscape:window-maximized="1"
     inkscape:current-layer="svg4" />
  <path
     d="M546.133333 921.6a17.066667 17.066667 0 0 0 0 34.133333h34.133334a17.066667 17.066667 0 0 0 0-34.133333h-34.133334z m119.466667-341.333333h-238.933333v187.733333a17.066667 17.066667 0 0 0 14.677333 16.896l224.256 32.0512V580.266667z m51.2 278.6304a17.066667 17.066667 0 0 0-17.066667 17.066666V972.8a17.066667 17.066667 0 0 1-17.066666 17.066667H136.533333a17.066667 17.066667 0 0 1-17.066666-17.066667v-921.6A17.066667 17.066667 0 0 1 136.533333 34.133333h546.133334a17.066667 17.066667 0 0 1 17.066666 17.066667v233.3696a17.066667 17.066667 0 0 0 34.133334 0V51.2C733.866667 22.971733 710.894933 0 682.666667 0H136.533333c-28.228267 0-51.2 22.971733-51.2 51.2v921.6c0 28.228267 22.971733 51.2 51.2 51.2h546.133334c28.228267 0 51.2-22.971733 51.2-51.2v-96.836267a17.066667 17.066667 0 0 0-17.066667-17.066666zM494.933333 85.333333A17.066667 17.066667 0 0 0 477.866667 68.266667h-136.533334a17.066667 17.066667 0 0 0 0 34.133333h136.533334a17.066667 17.066667 0 0 0 17.066666-17.066667z m204.8 736.494934l219.477334 31.368533a17.066667 17.066667 0 0 0 19.456-16.896v-256h-238.933334v241.527467z m-34.133333-478.242134l-224.256 32.0512a17.066667 17.066667 0 0 0-14.677333 16.896V546.133333h238.933333v-202.5472z m267.1616-32.221866a17.134933 17.134933 0 0 0-13.550933-3.9936l-219.477334 31.368533V546.133333h238.933334V324.266667a16.930133 16.930133 0 0 0-5.905067-12.9024zM238.933333 921.6a17.066667 17.066667 0 0 0 0 34.133333h34.133334a17.066667 17.066667 0 0 0 0-34.133333H238.933333z"
     p-id="2185"
     id="path2"
     style="fill:#0180d7;fill-opacity:1" />
</svg>
