<svg xmlns="http://www.w3.org/2000/svg" viewBox="0 0 125 125"><defs><style>.cls-1{fill:#515151;}.cls-2{fill:#fff;}</style></defs><title>资源 8</title><g id="图层_2" data-name="图层 2"><g id="图层_9" data-name="图层 9"><path class="cls-1" d="M62.54,72.8l-6.47,7.45,3.3,4.94h6.26L69,80.25Z"/><path class="cls-1" d="M106.31,78.24a63.59,63.59,0,0,0-26.16-7.16,155.79,155.79,0,0,1-.72,18.33,22.87,22.87,0,0,1-10.21,17.47L67.57,89.63H57.5l-1.65,17.25a22.9,22.9,0,0,1-10.28-17.4,155.79,155.79,0,0,1-.72-18.33,63.59,63.59,0,0,0-26.16,7.16C13.51,81.11,4.67,98.79,0,125H125c-4.67-26.28-13.37-44.11-18.69-46.76Z"/><path class="cls-1" d="M99.48,16.45c0-7.16-20-16.9-36.94-16.4-16.9-.86-37.17,9.24-37.17,16.4s9.2,9.88,9.2,9.88a36,36,0,0,0,0,6.73,17.58,17.58,0,0,0,1.15,1.79c-2.44,31.72,23.15,34.59,27,34.87s29.4-3.08,26.95-34.87a14.7,14.7,0,0,0,1.15-1.79,34.4,34.4,0,0,0,0-6.73c-.21-2.24,8.56-2.72,8.7-9.88Z"/><rect class="cls-2" x="38.17" y="20.89" width="48.66" height="5.16"/><polygon class="cls-2" points="67.35 18.24 62.43 15.66 57.5 18.24 58.45 12.78 54.46 8.91 59.97 8.12 62.43 3.15 64.89 8.12 70.4 8.91 66.41 12.79 67.35 18.24"/></g></g></svg>